# xmcd CD database file
#
# Track frame offsets:
#	150
#	22155
#	44022
#	66477
#	89150
#	111480
#	133275
#	153495
#	175020
#	196720
#	224002
#	246402
#
# Disc length: 3595 seconds
#
# Revision: 0
# Processed by: cddbd v1.5.1PL2 Copyright (c) Steve Scherf et al.
# Submitted via: CDex 1.51
#
DISCID=c40e090c
DTITLE=Rodriguez Gustavo - Septimo Sentido
DYEAR=1995
DGENRE=Salsa
TTITLE0=CELOS
TTITLE1=EN ESTA NOCHE
TTITLE2=POR VOLVERTE A VER
TTITLE3=NUNCA TE DEJARE IR
TTITLE4=ERES TODO PARA MI
TTITLE5=NO HACE FALTA NADA
TTITLE6=VEN MIRA MIS OJOS
TTITLE7=AL FINAL DE TANTA ESPERA
TTITLE8=SEPTIMO SENTIDO
TTITLE9=GUSTAVO'S MIX
TTITLE10=VEN AMOR
TTITLE11=ISI
EXTD=YEAR: 1995
EXTT0=
EXTT1=
EXTT2=
EXTT3=
EXTT4=
EXTT5=
EXTT6=
EXTT7=
EXTT8=
EXTT9=
EXTT10=
EXTT11=
PLAYORDER=
